<svg width="24px" height="24px" viewBox="0 0 24 24" version="1.1" xmlns="http://www.w3.org/2000/svg" xmlns:xlink="http://www.w3.org/1999/xlink">
      <g stroke="none" stroke-width="1" fill="none" fill-rule="evenodd">
        <rect x="0" y="0" width="24" height="24"></rect>
        <g transform="translate(4.000000, 2.000000)" fill="#000000" fill-rule="nonzero">
          <path class="svgfill svgpath" d="M16.212963,4.6875 L13.814625,4.6875 C13.5019745,2.05164063 11.2379838,0 8.5,0 C5.7620162,0 3.49802546,2.05164063 3.185375,4.6875 L0.787037037,4.6875 C0.352356481,4.6875 0,5.03726562 0,5.46875 L0,19.21875 C0,19.6502344 0.352356481,20 0.787037037,20 L16.212963,20 C16.6476435,20 17,19.6502344 17,19.21875 L17,5.46875 C17,5.03726562 16.6476435,4.6875 16.212963,4.6875 Z M8.5,1.5625 C10.3685833,1.5625 11.9243588,2.91621094 12.2250069,4.6875 L4.77499306,4.6875 C5.0756412,2.91621094 6.63141667,1.5625 8.5,1.5625 Z M15.4259259,18.4375 L1.57407407,18.4375 L1.57407407,6.25 L3.14814815,6.25 L3.14814815,8.59375 C3.14814815,9.02523438 3.50050463,9.375 3.93518519,9.375 C4.36986574,9.375 4.72222222,9.02523438 4.72222222,8.59375 L4.72222222,6.25 L12.2777778,6.25 L12.2777778,8.59375 C12.2777778,9.02523438 12.6301343,9.375 13.0648148,9.375 C13.4994954,9.375 13.8518519,9.02523438 13.8518519,8.59375 L13.8518519,6.25 L15.4259259,6.25 L15.4259259,18.4375 Z"></path>
        </g>
      </g>
  </svg>
