<svg width="24px" height="24px" viewBox="0 0 24 24" version="1.1" xmlns="http://www.w3.org/2000/svg" xmlns:xlink="http://www.w3.org/1999/xlink">
      <g stroke="none" stroke-width="1" fill="none" fill-rule="evenodd">
        <g transform="translate(2.000000, 2.000000)" fill="#000000" fill-rule="nonzero">
          <path class="svgfill svgpath" d="M19.7711623,18.6660544 L14.1285116,13.0233967 C16.6993294,9.89546628 16.5244077,5.25214484 13.6030824,2.330816 L13.6030434,2.330816 C10.495312,-0.776958197 5.43855914,-0.776919135 2.3308278,2.330816 C-0.776942601,5.43859019 -0.776942601,10.4952711 2.3308278,13.6030453 C5.25137182,16.5235929 9.89410167,16.7004289 13.0234345,14.1284751 L18.6660853,19.7711328 C18.9713194,20.0763281 19.4660064,20.07625 19.7711623,19.7711328 C20.0762792,19.4659764 20.0762792,18.9712107 19.7711623,18.6660544 Z M12.4980054,12.4979669 C9.99960938,14.996405 5.93430085,14.996366 3.43590485,12.4979669 C0.937469788,9.99952881 0.937469788,5.93429344 3.43590485,3.43585533 C5.93426178,0.937495346 9.99953125,0.937378159 12.4980054,3.43585533 C14.9964404,5.93429344 14.9964404,9.99952881 12.4980054,12.4979669 Z"></path>
        </g>
      </g>
    </svg>
