<svg width="24px" height="24px" viewBox="0 0 24 24" version="1.1" xmlns="http://www.w3.org/2000/svg" xmlns:xlink="http://www.w3.org/1999/xlink">
      <g stroke="none" stroke-width="1" fill="none" fill-rule="evenodd">
        <rect x="0" y="0" width="24" height="24"></rect>
        <g transform="translate(2.000000, 2.000000)" fill="#000000" fill-rule="nonzero">
          <path class="svgfill svgpath" d="M17.071088,12.1416406 C15.9634687,11.0340234 14.641513,10.2187109 13.1990102,9.73335938 C14.5292862,8.75015625 15.3936629,7.17101563 15.3936629,5.39363281 C15.3937019,2.41957031 12.9741269,0 10.0000195,0 C7.02591216,0 4.60633712,2.41957031 4.60633712,5.39363281 C4.60633712,7.17105469 5.47071381,8.75019531 6.80098985,9.73335937 C5.35848703,10.2186719 4.03660945,11.0339844 2.92891197,12.1416406 C1.04019734,14.0303906 0,16.5416406 0,19.2127344 C0,19.6475391 0.352461626,20 0.787267163,20 L19.2127328,20 C19.6475384,20 20,19.6475391 20,19.2127344 C20,16.5416406 18.9598417,14.0303906 17.071088,12.1416406 Z M6.18094957,5.39363281 C6.18094957,3.28777344 7.89415604,1.57457031 10.0000586,1.57457031 C12.1059611,1.57457031 13.8191676,3.28777344 13.8191676,5.39363281 C13.8191676,7.49949219 12.1059611,9.21269531 10.0000586,9.21269531 C7.89415604,9.21269531 6.18094957,7.49949219 6.18094957,5.39363281 Z M1.61105783,18.4254297 C2.00926174,14.1473438 5.61965941,10.7872656 10.0000195,10.7872656 C14.3803796,10.7872656 17.9907773,14.1473047 18.3889812,18.4254297 L1.61105783,18.4254297 L1.61105783,18.4254297 Z"></path>
        </g>
      </g>
    </svg>
